<svg id="svg" version="1.1" viewBox="0 0 219.34931506849315 300" width="219.34931506849315" height="300" xmlns="http://www.w3.org/2000/svg"><svg xmlns="http://www.w3.org/2000/svg"><defs><clipPath id="clip-1"><rect x="0" y="0" transform="scale(0.14653,0.14648)" width="1497" height="2048" fill="none"/></clipPath></defs><g clip-path="url(#clip-1)" fill="none" fill-rule="nonzero" stroke="none" stroke-width="1" stroke-linecap="butt" stroke-linejoin="miter" stroke-miterlimit="10" stroke-dasharray="" stroke-dashoffset="0" font-family="none" font-weight="none" font-size="none" text-anchor="none" style="mix-blend-mode: normal"><path d="M68.2613,10.42554c0.11224,-0.00829 0.22448,-0.01519 0.33686,-0.02071c4.89807,-0.19564 11.38257,-0.00516 16.40548,-0.00362l32.69697,0.00615l20.0153,-0.00555c2.52889,-0.00571 8.256,-0.17458 10.58591,0.07644c1.33778,0.13417 2.59497,0.70589 3.57523,1.62655c2.41914,2.31546 1.82571,8.03139 1.80227,11.189c-0.04103,3.4188 -0.03224,6.83804 0.02491,10.25654c6.23761,-0.3186 12.8093,0.16333 19.09672,-0.02974c14.76249,-0.45352 28.50515,11.5292 30.73088,25.99087c0.53482,3.47388 0.44397,6.3542 0.44544,9.84932l0.01758,10.99541v38.6792l0.0044,135.68628c-0.01465,9.65771 -2.09386,16.60986 -8.9879,23.81104c-4.72107,4.9292 -11.92135,8.45215 -18.68352,9.09814c-3.34812,0.31934 -7.61349,0.20508 -11.10373,0.20801l-16.72007,-0.00146h-75.70584l-20.45326,0.00732c-4.46391,0 -10.37037,0.23437 -14.6293,-0.59033c-5.78558,-1.16162 -11.12381,-3.9375 -15.39724,-8.00684c-6.5396,-6.28418 -9.64631,-14.07129 -9.64532,-23.04346c0.00163,-14.76416 -0.00516,-29.54297 -0.00769,-44.3042l0.00271,-89.925l-0.003,-40.78242l-0.00659,-11.86465c0.00107,-2.73311 -0.02509,-6.96738 0.40235,-9.62915c1.07656,-6.44604 4.10878,-12.40562 8.68595,-17.07173c4.11958,-4.20044 9.55159,-7.08267 15.2765,-8.41831c4.07826,-0.95142 8.2497,-0.69243 12.42042,-0.69053l13.53006,-0.0126c-0.24646,-5.66411 0.06696,-12.02505 0.09978,-17.72065c0.01773,-3.07632 2.37225,-4.67624 5.18775,-5.35932zM186.69894,271.63037c7.27648,-7.64941 6.8706,-12.03809 6.85448,-22.05762l-0.02637,-12.31787l-0.0044,-41.90332v-85.60884l-0.0044,-27.89561c0.00293,-4.70933 -0.1055,-9.94072 0.00293,-14.59175c0.28866,-12.45132 -7.35121,-22.32568 -20.10922,-23.20415c-2.49827,-0.17197 -5.01265,-0.11396 -7.54315,-0.11338c-3.46827,-0.03325 -6.93654,-0.00029 -10.40481,0.09902c-0.59343,0.02578 -1.18833,0.03794 -1.78469,0.03647l0.02344,8.35737c0.02344,4.43936 0.73996,10.40757 -5.4493,11.07378c-3.03089,0.32622 -6.44421,0.13286 -9.51935,0.12627l-16.20445,0.01318c-17.29548,0.00688 -34.62027,0.20317 -51.91282,-0.00806c-2.55629,-0.0312 -4.25643,-0.23057 -6.11116,-2.14102c-0.45511,-0.4689 -0.8667,-0.92725 -1.07198,-1.55962c-0.98084,-3.02007 -0.36558,-12.15791 -0.52691,-15.96797c-6.22134,0.14224 -12.58775,-0.13096 -18.89613,0.0438c-6.75001,0.54844 -11.29935,2.17383 -15.8311,7.41665c-5.77078,6.67646 -5.08518,14.03774 -5.0824,22.15884l0.00777,18.34893l0.00322,59.9146l-0.00161,71.08887v22.53076c-0.00088,10.94678 -1.43595,19.38135 7.90713,27.26953c3.00261,2.4873 6.65755,4.05762 10.52877,4.52344c3.00642,0.36328 6.67645,0.24463 9.75936,0.22705l10.81757,0.01318h40.42885l47.82108,-0.00293l14.85773,0.00732c8.97178,0.00586 14.35075,0.58887 21.47191,-5.87695zM73.32099,20.83403c0.19591,1.66714 0.10477,4.47305 0.09832,6.23145l-0.02183,10.30649l0.02037,10.28188c0.0104,1.34004 0.12645,4.29521 0.0252,5.52305c19.119,0.64175 38.61295,-0.21167 57.77503,0.1251c3.1462,0.05537 6.48553,0.04263 9.62998,-0.03413c0.8182,-0.02461 1.66834,-0.0375 2.48156,-0.10166c-0.12367,-6.82529 -0.01641,-13.7814 -0.00176,-20.61724c0.00689,-3.25342 -0.2803,-8.78262 -0.04747,-11.75479c-19.01408,-0.32842 -38.14378,0.07983 -57.16621,-0.0397c-2.9248,-0.01831 -6.54048,-0.30278 -9.42015,-0.03604c-1.12371,0.0561 -2.24815,0.09463 -3.37303,0.11558z" fill="#9d8f62"/><path d="M43.10544,201.01758c2.1765,-0.13037 4.99917,-0.0542 7.22798,-0.04687l11.30374,0.00586l36.88409,-0.00146h49.20033l15.98158,-0.00732c2.80451,-0.00293 5.61927,0.01318 8.4355,0.01318c3.40526,-0.00146 5.11669,1.51758 5.66762,4.875c0.54068,3.30029 -0.58171,6.83496 -4.31665,7.36523c-2.25943,0.14355 -5.16504,0.07031 -7.48015,0.07031l-12.78585,-0.00146l-39.51951,0.00293l-47.60613,-0.00146l-14.85846,0.00732c-2.54926,0.00732 -8.43535,0.5083 -10.31484,-0.80713c-3.66344,-2.56348 -3.02488,-10.88818 2.18075,-11.47412z" fill="#7e6745"/><path d="M103.71559,234.73975c0.20953,-0.00879 0.41921,-0.01758 0.62889,-0.02344c3.79048,-0.11865 8.76855,0.05566 12.68211,0.05713h28.79234l18.16848,-0.01318c3.12686,-0.00439 6.30941,-0.04102 9.43187,0.0498c5.97386,0.17578 5.98412,11.61768 0.27547,12.11133c-2.3913,0.20654 -4.93499,0.15234 -7.34828,0.15234l-12.24224,-0.00439l-40.91297,-0.00293h-47.86577l-14.55911,0.01611c-2.50589,0.00439 -5.09119,0.07178 -7.61847,-0.05273c-5.05002,-0.24902 -5.68682,-7.77832 -2.94883,-10.81494c0.50346,-0.55811 1.53325,-1.25684 2.28917,-1.32568c2.06602,-0.18457 4.20251,-0.12891 6.27878,-0.12891l11.68662,0.00439c14.27749,-0.00146 29.02796,0.20361 43.26193,-0.0249z" fill="#7e6745"/><path d="M138.76723,73.12222c1.53325,-0.16685 3.15734,0.03296 4.57381,0.66841c0.72486,0.23394 2.42266,1.75986 2.49446,2.53872c0.48061,5.21191 0.26345,10.9437 0.30287,16.16514c0.11414,13.91938 0.1096,27.83936 -0.01348,41.75859c-0.02711,6.94629 0.02242,13.91587 -0.04703,20.86216c-0.06286,0.97705 0.01231,1.94971 -0.50918,2.82129c-0.93044,1.55566 -2.5919,2.18701 -4.26097,2.62646c-2.65139,0.41748 -6.85155,-0.71191 -7.32615,-3.57568c-0.49687,-2.99854 -0.29291,-7.30664 -0.29437,-10.38428l-0.00103,-19.84395l0.00513,-32.10469c-0.00073,-5.30596 -0.04396,-10.61396 -0.00601,-15.91948c0.02594,-3.61978 1.85663,-4.75576 5.08196,-5.6127z" fill="#7e6745"/><path d="M75.61734,73.11475c2.14499,-0.19102 6.53344,0.72964 6.92994,3.37427c0.40983,2.73384 0.22228,6.35303 0.21964,9.1957l-0.00161,17.03657l0.00396,34.72969c0.00264,6.1311 0.02681,12.26045 -0.03326,18.39082c-0.02828,2.87988 -2.20595,4.19238 -4.78817,4.70654c-2.55937,0.33984 -6.47425,-0.66797 -7.21523,-3.17871c-0.45115,-1.52783 -0.26463,-7.15283 -0.26419,-8.97217l0.00879,-16.0415l-0.00264,-35.5938c-0.00029,-6.14062 -0.00806,-12.28081 0.02198,-18.42129c0.01788,-3.6583 1.95729,-4.40684 5.12079,-5.22612z" fill="#7e6745"/><path d="M60.04486,84.98452c1.934,-0.13828 4.19123,0.45703 5.64096,1.77715c1.08986,0.99258 1.23111,2.28237 1.23888,3.67544c0.02286,4.15049 0.00234,8.33467 -0.00293,12.48267l0.00718,22.22051l0.00454,12.4314c0.00044,2.1019 0.10828,5.09663 -0.1288,7.07695c-0.73072,5.16094 -10.36378,5.4041 -11.94084,0.68057c-0.48324,-1.44756 -0.31708,-4.05879 -0.29686,-5.65635c0.00586,-5.41304 0.09378,-11.11963 -0.08748,-16.49985c-3.31075,-0.03486 -6.63367,0.07852 -9.94164,0.00293c-3.79048,-0.08262 -5.86924,-2.0896 -5.95423,-5.85937c-0.07927,-3.51094 1.0081,-6.37573 4.90657,-6.67119c1.46072,-0.11074 3.01565,-0.04526 4.4938,-0.03369c2.21723,0.02593 4.43475,0.02197 6.65198,-0.01157c-0.21788,-2.62646 -0.03224,-7.99907 -0.07019,-10.80352c-0.03487,-2.56934 -0.15444,-9.35859 0.21803,-11.6231c1.6893,-2.29072 2.61446,-2.6231 5.26101,-3.18896z" fill="#7e6745"/><path d="M154.7431,84.13433c0.28866,-0.01934 0.57878,-0.03018 0.86743,-0.03267c2.07481,-0.01787 5.73063,0.83101 6.12771,3.36211c0.3839,2.44761 0.21979,5.54502 0.21979,8.06221l0.00147,15.07002c3.81407,0.06533 8.82526,-0.25972 12.45177,0.24932c4.80898,0.67529 4.92474,11.33628 -0.36338,12.03911c-3.88587,0.5165 -8.10728,0.29121 -12.04297,0.28037c-0.06594,4.52578 -0.08352,9.05215 -0.04982,13.57837c-0.01612,2.12563 0.39562,6.54258 -0.57438,8.26743c-2.12902,3.94937 -10.29345,3.51431 -11.55943,-0.85474c-0.45277,-1.56255 -0.22858,-6.22178 -0.22418,-8.04126l0.00147,-12.1645v-23.15654c0.00147,-4.00591 -0.0337,-8.01621 0.04982,-12.02021c0.06154,-2.97378 2.50706,-4.20527 5.09471,-4.63901z" fill="#7e6745"/><path d="M86.11988,110.53989c1.72402,0.14663 4.12895,0.09272 5.89723,0.09287l9.1737,-0.00029l29.1484,-0.01787c-0.02022,4.09761 0.00147,8.19536 0.06506,12.29268l-0.14433,0.23789c-0.80912,0.14282 -8.43916,0.04014 -9.7957,0.0394l-22.55503,-0.00469c-2.9692,0.00015 -8.99215,-0.15937 -11.7061,0.10591c0.0844,-1.90518 0.02007,-4.28232 0.06857,-6.21855c0.03942,-1.57515 0.13905,-5.09414 -0.1518,-6.52734z" fill="#7e6745"/><path d="M90.22642,22.14111c3.48146,0.02681 6.96291,0.03442 10.44422,0.023c2.09268,-0.00132 4.58846,0.05845 6.65198,-0.06577c0.11092,1.80088 0.06169,4.18755 0.07781,6.03296c-3.01433,-0.00161 -7.46945,0.18442 -10.31806,-0.00527c-0.08191,1.87412 0.06066,3.77153 -0.09041,5.66191c2.98019,0.16245 6.59249,0.04204 9.5784,-0.03105c0.28133,2.55205 0.1603,3.83408 0.13715,6.31787l-2.04462,-0.03809c-2.48112,-0.02871 -5.17105,0.104 -7.61085,-0.04673c0.14887,3.50874 -0.01626,8.25161 0.00044,11.87842c-2.17796,-0.121 -4.69367,-0.20186 -6.86064,-0.04058l-0.00366,-21.42949c0,-1.24351 -0.0822,-7.60239 0.03824,-8.25718z" fill="#7e6745"/><path d="M110.4171,22.10068c1.78762,0.17373 5.60887,0.09229 7.59312,0.0728c2.9947,-0.02944 6.72994,0.09873 9.64829,-0.07104l-0.03854,6.01304c-3.21654,0.13096 -7.11017,0.04673 -10.39777,0.09316c0.00542,1.85391 -0.00249,3.70781 -0.02374,5.56172c3.17771,0.13975 6.52612,0.06899 9.70676,0.02725l-0.01641,6.18618l-1.57252,0.0479c-2.69007,-0.0438 -5.41838,0.08833 -8.08471,-0.00952l-0.03619,11.82319c-1.93693,-0.11997 -4.80942,-0.18398 -6.72305,-0.00864c-0.12865,-2.6373 0.00557,-5.88062 -0.02286,-8.56567c-0.07444,-7.01719 0.13715,-14.16284 -0.03238,-21.17036z" fill="#7e6745"/></g></svg></svg>